<?xml version="1.0" encoding="UTF-8"?>
<svg data-bbox="-0.002 0.441 183.998 43.489" xmlns="http://www.w3.org/2000/svg" viewBox="0 0 184 44" height="44" width="184" data-type="color">
    <g>
        <path d="m37.262 33.66-9.176-5.3a2.695 2.695 0 0 0-4.031 2.598v10.358a2.687 2.687 0 0 0 5.37 0v-5.957l5.141 2.969a2.696 2.696 0 0 0 2.696-4.668" fill="#29B5E8" data-color="1"/>
        <path d="M14.441 22.301a2.642 2.642 0 0 0-1.316-2.329l-9.176-5.296a2.633 2.633 0 0 0-1.312-.352c-.942 0-1.817.504-2.285 1.316a2.636 2.636 0 0 0 .964 3.598l5.29 3.05-5.29 3.055A2.603 2.603 0 0 0 .09 26.941a2.61 2.61 0 0 0 .262 2 2.641 2.641 0 0 0 3.597.965l9.176-5.297a2.648 2.648 0 0 0 1.316-2.308" fill="#29B5E8" data-color="1"/>
        <path d="m6.031 10.921 9.176 5.297c1.07.622 2.39.418 3.234-.406a2.675 2.675 0 0 0 .868-1.976V3.219a2.687 2.687 0 1 0-5.371 0v6.042L8.727 6.254a2.696 2.696 0 1 0-2.696 4.668" fill="#29B5E8" data-color="1"/>
        <path d="M26.664 22.731c0 .202-.117.484-.262.632L22.766 27c-.145.144-.43.261-.633.261h-.926c-.203 0-.488-.117-.633-.261l-3.64-3.637a1.04 1.04 0 0 1-.262-.633v-.926c0-.207.117-.488.262-.632l3.64-3.641c.145-.145.43-.262.633-.262h.926c.203 0 .488.117.633.262l3.636 3.64c.145.145.262.426.262.633v.926Zm-3.246-.446v-.04a.77.77 0 0 0-.191-.464l-1.075-1.07a.734.734 0 0 0-.464-.196h-.04a.752.752 0 0 0-.464.196l-1.07 1.07a.752.752 0 0 0-.192.465v.039c0 .152.086.36.191.465l1.07 1.074a.77.77 0 0 0 .465.191h.04a.751.751 0 0 0 .464-.191l1.075-1.074a.752.752 0 0 0 .191-.465Z" fill="#29B5E8" data-color="1"/>
        <path d="m28.086 16.219 9.176-5.297a2.696 2.696 0 1 0-2.696-4.668l-5.14 2.968V3.218a2.687 2.687 0 1 0-5.371 0v10.407a2.696 2.696 0 0 0 4.031 2.594" fill="#29B5E8" data-color="1"/>
        <path d="M17.047 28.047a2.674 2.674 0 0 0-1.84.312l-9.176 5.3a2.691 2.691 0 0 0-.988 3.68 2.693 2.693 0 0 0 3.684.989l5.21-3.008v5.996a2.687 2.687 0 0 0 5.372 0V30.699c0-1.34-.98-2.45-2.262-2.652" fill="#29B5E8" data-color="1"/>
        <path d="M42.996 15.609a2.692 2.692 0 0 0-3.683-.988l-9.176 5.297a2.699 2.699 0 0 0-1.348 2.383 2.69 2.69 0 0 0 1.348 2.359l9.176 5.3a2.697 2.697 0 1 0 2.695-4.672l-5.195-3 5.195-3a2.688 2.688 0 0 0 .988-3.679" fill="#29B5E8" data-color="1"/>
        <path d="M183.996 21.668v.101c0 .5-.418.871-.933.871h-12.891c.023.305.062.602.125.895.598 2.793 2.988 4.871 5.828 4.894h.75c.059 0 .117 0 .18-.003.054 0 .11-.004.164-.008.004 0 .008 0 .011-.004.942-.074 1.891-.453 2.739-1.063h.004c.043-.03.09-.066.132-.101.008-.004.016-.012.028-.02l.113-.09c.016-.011.027-.023.043-.035.031-.023.063-.05.094-.078l.062-.05c.024-.024.047-.048.075-.067.023-.024.05-.047.074-.07a.75.75 0 0 0 .058-.055c.032-.027.059-.055.09-.082.016-.016.031-.035.047-.05l.094-.095.043-.043.094-.105a.23.23 0 0 0 .039-.043c.035-.035.066-.07.097-.106.012-.015.028-.03.04-.046.03-.04.058-.075.09-.11l.046-.058c.027-.036.055-.067.078-.098.024-.031.043-.059.063-.086.02-.027.039-.05.058-.078.032-.043.063-.086.09-.129a7.76 7.76 0 0 0 .254-.39s0-.005.004-.008c.016-.028.035-.051.055-.079a.105.105 0 0 1 .027-.03c.012-.02.027-.032.039-.048l.035-.035.043-.035a.153.153 0 0 1 .04-.031.387.387 0 0 1 .066-.043.357.357 0 0 1 .05-.031.496.496 0 0 0 .051-.024c.016-.008.031-.012.043-.02.024-.007.043-.011.067-.019l.03-.012a.886.886 0 0 1 .473.008h.008c.032.012.067.02.098.035.008.004.016.004.023.008a.768.768 0 0 1 .098.05l.016.009c.43.312.562.86.3 1.308l-.003.004c-.032.051-.063.102-.094.149l-.024.035c-.914 1.39-2.156 2.5-3.543 3.164-.03.012-.058.027-.09.043-.003 0-.011.004-.015.004a6.753 6.753 0 0 1-2.063.59c-.015 0-.03.003-.046.003-.063.008-.125.016-.188.02-.035 0-.07.004-.11.008-.042 0-.09.004-.132.008-.086 0-.172.004-.258.004h-.758c-4.336-.032-7.828-3.649-7.828-8.079 0-4.503 3.516-8.14 7.887-8.14a7.586 7.586 0 0 1 4.496 1.465c.066.046.129.097.191.144l.102.082c.031.024.062.051.094.074 1.644 1.371 2.754 3.43 2.937 5.813v.008Zm-13.7-.867h11.669c-.578-2.813-2.996-4.848-5.79-4.848-2.843 0-5.241 1.996-5.878 4.848Z" fill="#29B5E8" data-color="1"/>
        <path d="M151.039 14.355a.93.93 0 0 1 .266.567c0 .03.004.062.004.093v14.348c0 .512-.43.938-.938.938a.945.945 0 0 1-.933-.938v-1.906a8.02 8.02 0 0 1-1.172 1.16c-.012.012-.024.02-.036.031a2.884 2.884 0 0 1-.12.09c-1.29.992-2.856 1.563-4.493 1.563-2.637 0-4.957-1.403-6.34-3.528l-.039-.05a13.76 13.76 0 0 0-.12-.204c-.028-.043-.052-.086-.079-.129a1.524 1.524 0 0 1-.074-.136 5.285 5.285 0 0 1-.113-.203c-.012-.024-.02-.047-.032-.07a8.326 8.326 0 0 1-.882-3.376 7.223 7.223 0 0 1 0-.828 8.36 8.36 0 0 1 .882-3.379c.012-.02.02-.043.032-.066a4.52 4.52 0 0 1 .113-.203c.023-.047.047-.094.074-.137.024-.043.05-.086.078-.129l.121-.203.04-.05c1.382-2.126 3.702-3.528 6.34-3.528 1.78 0 3.464.652 4.804 1.789.367.308.707.648 1.016 1.023v-1.879c0-.03 0-.062.003-.093a.93.93 0 0 1 .266-.567v-.004c.016-.015.035-.027.05-.043l.016-.015c.012-.012.028-.02.04-.028.011-.007.023-.02.035-.027a.082.082 0 0 0 .023-.016c.02-.007.035-.02.055-.03.004 0 .008-.005.012-.005l.07-.035h.004a.87.87 0 0 1 .172-.05c.004 0 .011-.005.015-.005l.078-.011c.032 0 .063-.004.094-.004.035 0 .067.004.098.004l.078.011c.004 0 .008.004.016.004a.87.87 0 0 1 .171.051h.004l.067.035c.008 0 .011.004.015.004a.357.357 0 0 0 .051.031c.008.008.02.012.027.016.012.008.024.02.036.027.011.008.023.016.035.028.008.004.011.011.02.015.015.016.034.028.046.043l.004.004Zm-7.422 14.074c3.207 0 5.82-2.796 5.82-6.238 0-3.457-2.613-6.27-5.82-6.27-3.183 0-5.82 2.81-5.82 6.27 0 .11.004.215.008.32 0 .047.008.09.008.133.003.063.007.125.015.184.004.05.012.098.016.144.008.055.011.114.02.168.007.043.015.082.019.121.012.063.02.125.031.188.008.031.016.059.02.086l.046.219a.22.22 0 0 0 .016.047c.664 2.671 2.945 4.628 5.621 4.628Z" fill="#29B5E8" data-color="1"/>
        <path d="M127.558 7.316h-.253c-.032 0-.067 0-.098.004-.035-.004-.066-.004-.102-.004-.09 0-.18 0-.269.004-.016 0-.035.004-.05.004-.071 0-.141.004-.212.012h-.039c-.074.008-.144.011-.215.02-.007.003-.015.003-.023.003-.078.012-.152.02-.223.031h-.008a4.405 4.405 0 0 0-1.277.395c0 .004-.004.004-.008.004-.054.031-.113.062-.168.094a.079.079 0 0 0-.03.02 1.901 1.901 0 0 0-.142.085c-.02.012-.035.027-.05.04-.04.023-.075.05-.114.077a1.003 1.003 0 0 1-.082.067l-.07.058c-.043.04-.082.074-.121.114l-.024.023-.14.148a.222.222 0 0 1-.024.032 3.258 3.258 0 0 0-.113.129c-.012.02-.027.039-.039.058a2.166 2.166 0 0 0-.113.152c-.031.047-.063.094-.09.141l-.012.02c-.254.418-.433.91-.547 1.504 0 .007 0 .02-.004.027-.015.074-.027.152-.039.23a.426.426 0 0 0-.007.07 3.188 3.188 0 0 0-.04.325c-.007.055-.015.105-.019.164a42.33 42.33 0 0 0-.012.18c-.004.039-.004.078-.008.12l-.011.255c0 .023-.004.039-.004.058-.004.11-.004.223-.004.332v1.543h-1.945a.964.964 0 0 0-.352.059.908.908 0 0 0-.602.847.996.996 0 0 0 .946 1.004h.008v.004h1.945v13.625c-.004.02 0 .035 0 .055v.035a.895.895 0 0 0 .246.57l.004.004.062.059c.004.004.008.004.012.008.016.015.035.027.05.039.009.008.02.015.028.02a.063.063 0 0 0 .028.015.966.966 0 0 0 .523.152.641.641 0 0 0 .09-.008.887.887 0 0 0 .488-.207l.004-.003a.312.312 0 0 0 .05-.051c.005-.004.013-.008.016-.012l.04-.043a.921.921 0 0 0 .218-.633V15.769h2.094v-.004h.008c.555-.027.96-.46.945-1v-.007c.004-.02 0-.04 0-.059v-.02a.864.864 0 0 0-.246-.539v-.004h-.004a.498.498 0 0 0-.055-.05c-.007-.008-.015-.012-.019-.02l-.043-.031c-.012-.008-.027-.02-.04-.027l-.026-.016a.427.427 0 0 0-.075-.04.553.553 0 0 0-.07-.03c-.004-.004-.008-.004-.016-.008l-.07-.024c-.008 0-.016-.004-.023-.004-.024-.003-.043-.011-.067-.015-.011 0-.023 0-.035-.004-.016-.004-.035-.004-.055-.008h-.043c-.011 0-.023-.004-.035-.004h-2.125v-1.57c.004-.078.004-.156.008-.23 0-.02 0-.044.004-.063 0-.066.004-.133.008-.195 0-.012.004-.028.004-.04a2.99 2.99 0 0 1 .02-.218c.073-.762.238-1.242.41-1.535.003-.008.003-.012.007-.02.012-.02.028-.039.04-.058a.326.326 0 0 1 .03-.047.571.571 0 0 1 .082-.105c.247-.278.63-.446 1.184-.513.008 0 .012-.003.024-.003a.822.822 0 0 1 .097-.008c.016-.004.035-.004.051-.008.031 0 .059-.004.09-.004.023 0 .043-.004.07-.004.028-.004.055-.004.082-.004.028 0 .055-.004.082-.004h.203c.032 0 .059-.004.09-.008.035.004.07.008.106.008h.254a.955.955 0 0 0 0-1.91" fill="#29B5E8" data-color="1"/>
        <path d="M132.598 7.344s-.004-.004-.008-.004c-.02-.008-.035-.016-.059-.02l-.031-.012-.047-.011c-.015-.004-.031-.012-.043-.012-.02-.004-.035-.008-.055-.008-.015-.004-.027-.004-.042-.008-.032-.004-.067-.004-.098-.004a.947.947 0 0 0-.938.934v21.164c0 .512.43.938.938.938.031 0 .066 0 .098-.004.003 0 .011-.004.015-.004l.082-.012c.004 0 .012-.004.02-.004.023-.008.047-.012.07-.02.004 0 .008 0 .012-.003a.94.94 0 0 0 .672-.891V8.199a.933.933 0 0 0-.586-.855" fill="#29B5E8" data-color="1"/>
        <path d="M60.875 25.321c-.008-.056-.008-.106-.016-.157l-.011-.11c-.008-.043-.012-.082-.02-.125a6.821 6.821 0 0 1-.043-.218c-.012-.047-.02-.09-.031-.137l-.024-.074a.893.893 0 0 0-.046-.145c-.004-.02-.012-.039-.016-.054a2.708 2.708 0 0 0-.074-.192c-.028-.055-.051-.113-.078-.168-.004-.004-.004-.008-.008-.012a3.448 3.448 0 0 0-.926-1.14c0-.004 0-.004-.004-.004-.055-.043-.11-.09-.168-.133l-.008-.008c-.004 0-.007-.004-.011-.008-.036-.023-.07-.05-.102-.074-.48-.34-1.012-.61-1.785-.906l-.035-.012c-.012-.008-.028-.011-.04-.02-.437-.163-.89-.32-1.355-.472h-.004s-.004 0-.004-.004c-.007 0-.015-.004-.027-.008a3.45 3.45 0 0 0-.23-.074c-.157-.055-.317-.105-.477-.16-.113-.04-.234-.078-.379-.125-.039-.012-.133-.043-.21-.066-.005 0-.005-.004-.009-.004a22.85 22.85 0 0 1-1.129-.383c-.445-.164-.851-.34-1.183-.55a.085.085 0 0 1-.02-.013c-.453-.289-.765-.644-.84-1.109l-.003-.004a.822.822 0 0 1-.008-.098c-.004-.007-.004-.011-.004-.015-.004-.04-.004-.074-.004-.113 0-.055.004-.11.008-.16 0-.016 0-.028.004-.04l.011-.12c.004-.012.004-.024.008-.036l.024-.125c.004-.004.004-.012.007-.02.012-.046.024-.09.04-.132v-.004c.203-.606.683-1.055 1.25-1.371l.113-.059c.039-.02.074-.039.11-.055.058-.027.116-.054.175-.078.035-.015.066-.03.102-.043l.187-.07c.031-.012.066-.023.102-.035.062-.02.12-.04.183-.055.04-.012.074-.023.113-.031.06-.016.118-.027.172-.043l.118-.023c.062-.012.12-.024.175-.032a3.387 3.387 0 0 1 .309-.035c.016-.004.031-.004.05-.008.087-.004.173-.008.255-.008.097 0 .195.004.289.008h.043c.691.043 1.25.211 1.71.434.036.016.07.035.106.05a5.125 5.125 0 0 1 .191.105l.024.013c.047.027.094.058.14.086a.012.012 0 0 0 .008.004c.051.031.102.066.153.097 0 .004.004.004.004.008.05.031.097.063.144.098.02.015.035.027.055.039.11.082.281.215.437.344.02.011.035.023.047.035a7.36 7.36 0 0 0 .38.297 715.243 715.243 0 0 1 .047.031c.026.02.058.039.085.059.012.007.023.011.035.02l.082.046.031.012a.894.894 0 0 0 .09.039l.02.008c.035.011.07.023.105.027l.004.004a.573.573 0 0 0 .23-.004c.008 0 .016-.004.024-.004.02-.004.043-.012.062-.016l.02-.011a.056.056 0 0 0 .023-.008c.032-.016.063-.031.094-.051a.917.917 0 0 0 .113-.082l.004-.004c.028-.023.051-.05.075-.078a.387.387 0 0 0 .043-.066c.003-.004.007-.008.007-.012.164-.274.07-.633-.218-1.024a.082.082 0 0 0-.016-.023l-.031-.043c-.664-.86-2.176-1.8-3.578-2.102-.008 0-.016 0-.024-.003l-.18-.036a2.03 2.03 0 0 0-.203-.027.302.302 0 0 0-.058-.008l-.145-.011c-.02-.004-.039-.004-.054-.008-.067 0-.13-.004-.192-.004-.101 0-.203 0-.3.004-.055 0-.11.004-.169.008-.039.003-.086.003-.125.003-.078.008-.152.012-.226.02a5.052 5.052 0 0 0-.316.031h-.028c-.09.012-.176.024-.262.04h-.015a4.91 4.91 0 0 0-.254.042c-.004 0-.008.004-.016.004-.176.031-.347.07-.511.113-.004 0-.004.004-.004.004-.082.02-.164.043-.246.067-.079.023-.153.05-.223.074-.008 0-.012.004-.02.004-.07.027-.14.05-.21.078a3.057 3.057 0 0 0-.219.094c-.008.004-.02.004-.028.011-.058.024-.12.055-.175.082-.016.008-.028.012-.04.02a2.258 2.258 0 0 0-.168.086c-.015.008-.027.016-.042.023-.051.028-.102.059-.153.09a.291.291 0 0 0-.047.028c-.066.039-.129.082-.191.12-.074.055-.149.106-.215.16-.008 0-.012.005-.012.009a4.224 4.224 0 0 0-.851.812c-.008.012-.02.024-.028.035-.027.043-.058.082-.086.121l-.058.094a1.999 1.999 0 0 0-.129.227c-.004.008-.008.011-.012.02-.21.417-.332.898-.379 1.48 0 .008 0 .015-.004.023-.003.102-.011.203-.015.313 0 .082 0 .164.004.246v.035c.043 1.117.55 1.957 1.468 2.61.008.003.016.011.024.015l.117.082c.027.02.059.035.086.055.008.007.02.011.027.015.907.574 2.016.903 2.942 1.164.453.133.86.246.98.282a.358.358 0 0 1 .078.027c.555.183.98.332 1.332.473.028.007.051.02.079.027.007.004.02.008.03.015a6.902 6.902 0 0 1 1.027.508c.372.23.657.48.849.754a.063.063 0 0 1 .015.024c.02.023.036.047.047.074.012.015.02.027.028.043.011.02.023.039.03.058.013.02.02.043.032.063l.024.047c.007.023.02.047.027.074.004.012.012.027.016.043l.023.082c.004.012.008.023.012.04a.68.68 0 0 1 .02.085.139.139 0 0 1 .007.04l.012.093a1.571 1.571 0 0 1 .011.172c0 .07-.003.136-.007.203 0 .02-.004.039-.004.058a1.013 1.013 0 0 1-.024.153c0 .015-.004.031-.007.047a1.98 1.98 0 0 1-.114.394c-.004.004-.004.008-.004.012-.027.058-.054.121-.086.176-.004.008-.004.011-.007.015a1.934 1.934 0 0 1-.243.36 3.039 3.039 0 0 1-.148.168c-.004 0-.004 0-.004.004a3.091 3.091 0 0 1-.344.293c-.004.003-.008.003-.008.007-.058.04-.117.082-.175.118-.008.007-.016.011-.024.015a4.23 4.23 0 0 1-.32.18 2.73 2.73 0 0 1-.121.058c-.043.02-.09.043-.137.063l-.113.047c-.106.039-.207.078-.313.113-.015.004-.03.008-.047.016-.062.02-.125.035-.187.054-.016.004-.035.012-.05.016-.208.055-.41.098-.602.129h-.012c-.098.016-.191.027-.281.039-.035.004-.067.008-.102.008-.031.004-.062.004-.098.008a4.393 4.393 0 0 1-.222.007 7.24 7.24 0 0 1-.422-.011c-.055 0-.11-.004-.164-.008-.074-.008-.152-.012-.223-.02a3.13 3.13 0 0 1-.199-.02 17.756 17.756 0 0 1-.168-.023c-.121-.02-.234-.035-.348-.058-.05-.012-.105-.02-.156-.031-.058-.016-.117-.028-.176-.043a2.736 2.736 0 0 1-.191-.051l-.129-.035a4.193 4.193 0 0 1-.312-.106l-.07-.023a7.18 7.18 0 0 1-.669-.29c-.008-.003-.02-.011-.031-.015-.14-.07-.379-.203-.605-.332l-.063-.035a6.373 6.373 0 0 0-.453-.25.068.068 0 0 0-.02-.008c-.035-.016-.062-.031-.093-.043a.926.926 0 0 0-.258-.074c-.024-.004-.047-.004-.07-.004-.008-.004-.016-.004-.024-.004a.559.559 0 0 0-.398.164.666.666 0 0 0-.075.074.085.085 0 0 1-.02.024l-.038.05-.02.032c-.011.015-.023.031-.031.047a1023.578 1023.578 0 0 0-.04.082l-.01.031a.363.363 0 0 0-.016.05c-.004.012-.008.02-.008.032l-.012.059c0 .007-.004.015-.004.023-.004.027-.004.05-.004.074v.012c0 .031.004.059.012.09v.015c.008.024.012.051.02.075l.011.035c.008.02.012.043.024.062l.011.028c.051.117.133.238.239.355a3.234 3.234 0 0 0 .43.383c.046.031.093.066.144.102.012.007.02.015.031.019a6.055 6.055 0 0 0 .563.344c.039.023.078.043.117.062.047.028.101.055.152.082.035.016.067.035.102.051a14.182 14.182 0 0 0 .273.133c.09.043.18.082.27.117l.113.047a9.063 9.063 0 0 0 3.004.602h.004c.031 0 .058 0 .09-.004h.21c.008 0 .016 0 .024-.004 1.48-.047 2.695-.43 3.73-1.188v-.004c1.149-.867 1.782-2.09 1.782-3.437a5.22 5.22 0 0 0-.008-.254c0-.031-.004-.063-.004-.09" fill="#29B5E8" data-color="1"/>
        <path d="M70.426 14.113h-.012c-1.82 0-3.539.742-4.781 2.055v-1.117c0-.516-.399-.938-.903-.938-.035 0-.066.004-.097.004a.93.93 0 0 0-.563.266c-.004 0-.004 0-.007.003-.012.016-.028.032-.04.047a.047.047 0 0 0-.02.02.215.215 0 0 0-.026.035.215.215 0 0 1-.028.035l-.011.024a.506.506 0 0 1-.036.054c0 .004 0 .008-.004.012l-.035.07c-.02.059-.039.118-.05.176 0 .004 0 .008-.004.008l-.012.086c0 .031-.004.062-.004.098v14.507l-.012.063.047.039c0 .02.004.047.016.074l.004.016c.007.02.02.043.039.062.12.23.343.407.605.485l.02.004h.218c.036 0 .07 0 .106-.004.023-.004.047-.012.07-.016.012 0 .02 0 .032-.004.03-.008.062-.016.093-.027h.004a.806.806 0 0 0 .399-.297l.011-.012a.624.624 0 0 0 .133-.234c.004-.012.008-.02.008-.028.004-.003.004-.003.004-.007.015-.047.027-.094.039-.141l.004-.016v-8.78c.062-2.618 2.203-4.747 4.773-4.75h.008a4.751 4.751 0 0 1 4.746 4.745v8.633a.76.76 0 0 0 .008.098.905.905 0 0 0 .266.57c.015.016.03.027.046.043a.069.069 0 0 0 .02.016c.012.011.023.02.035.027.012.012.024.02.035.027.012.004.02.008.028.016.015.012.035.02.05.031.004 0 .008.004.016.004.02.012.043.023.066.035h.004a.87.87 0 0 0 .172.051c.008 0 .012.004.016.004l.078.012a.785.785 0 0 0 .098.004c.03 0 .062 0 .093-.004l.079-.012c.003 0 .011-.004.015-.004a.907.907 0 0 0 .176-.05l.07-.036c.004 0 .008-.004.012-.004l.055-.031c.007-.008.015-.012.023-.016a.215.215 0 0 0 .035-.027c.012-.008.028-.016.04-.027.003-.004.011-.008.015-.016.016-.016.035-.027.05-.043v-.004a.889.889 0 0 0 .266-.566c.004-.032.004-.063.004-.098V20.73c0-3.644-2.96-6.61-6.605-6.617" fill="#29B5E8" data-color="1"/>
        <path d="M87.278 14.081c4.242 0 7.69 3.637 7.69 8.11 0 4.473-3.448 8.11-7.69 8.11-.133 0-.262-.004-.391-.012-.02 0-.035 0-.055-.004a4.674 4.674 0 0 1-.336-.027h-.012c-1.675-.184-3.242-.95-4.488-2.204-.05-.05-.105-.101-.152-.156-.004 0-.004-.004-.008-.004-.027-.027-.05-.058-.078-.09-.059-.062-.117-.128-.176-.195-.047-.05-.09-.11-.137-.164-.03-.043-.066-.086-.101-.129a4.278 4.278 0 0 1-.2-.265l-.023-.036a8.192 8.192 0 0 1-1.445-3.601c-.02-.121-.031-.242-.043-.363-.004-.012-.004-.028-.008-.043a4.852 4.852 0 0 1-.023-.336c-.004-.024-.004-.047-.004-.075a6.952 6.952 0 0 1 0-.812c0-.027 0-.05.004-.074.003-.114.011-.227.023-.336.004-.016.004-.032.008-.043.012-.121.023-.242.043-.363a8.192 8.192 0 0 1 1.445-3.602 7.078 7.078 0 0 1 .223-.305c.031-.039.066-.078.097-.12.047-.06.094-.114.141-.173.055-.062.11-.12.168-.183l.086-.098c.004 0 .004-.004.008-.004.043-.05.094-.098.14-.144 1.246-1.258 2.817-2.032 4.5-2.215h.012c.11-.012.223-.02.336-.028.02 0 .035-.004.055-.004.129-.007.258-.011.39-.011Zm5.788 7.473v-.007a6.48 6.48 0 0 0-1.578-3.657c-.039-.043-.074-.086-.113-.129l-.07-.07c-.047-.047-.09-.094-.137-.14-.043-.043-.09-.082-.133-.122-.027-.023-.05-.05-.078-.074-.07-.062-.14-.12-.21-.18 0 0-.005 0-.005-.003a5.545 5.545 0 0 0-2.851-1.215c-.012 0-.02-.004-.028-.004a2.528 2.528 0 0 0-.242-.02c-.02-.004-.035-.004-.05-.004-.098-.007-.196-.007-.294-.007-.097 0-.195 0-.293.007-.015 0-.03 0-.05.004-.082.004-.16.008-.243.02-.007 0-.015.004-.027.004a5.545 5.545 0 0 0-2.851 1.215c0 .004-.004.004-.004.004a6.74 6.74 0 0 0-.211.18c-.028.023-.051.046-.078.07-.043.043-.09.082-.133.125-.043.043-.086.09-.133.136l-.074.074c-.035.04-.07.082-.11.125a6.495 6.495 0 0 0-1.582 3.66v.008c-.008.09-.015.18-.02.274 0 .015-.003.031-.003.047-.004.105-.008.21-.008.316 0 3.434 2.64 6.238 5.82 6.238s5.82-2.804 5.82-6.238c0-.105-.003-.21-.007-.316 0-.016-.004-.032-.004-.047a6 6 0 0 0-.02-.274Z" fill="#29B5E8" data-color="1"/>
        <path d="M117.574 14.484c-.008-.008-.011-.015-.02-.023a.91.91 0 0 0-.359-.27h-.004c-.015-.012-.035-.015-.05-.023-.008 0-.016-.004-.028-.008a.842.842 0 0 0-.394-.031h-.004a.97.97 0 0 0-.672.449h-.004c-.02.039-.043.078-.059.117l-.003.004v.004L111.5 26.957l-3.516-8.367a.954.954 0 0 0-.136-.215 1.052 1.052 0 0 0-.785-.364.54.54 0 0 0-.137.012h-.016a1.023 1.023 0 0 0-.738.567v.003l-3.516 8.368-1.703-4.63-2.805-7.628a1.06 1.06 0 0 0-.05-.117l-.008-.008a.85.85 0 0 0-.387-.363s-.004 0-.004-.004a1.158 1.158 0 0 0-.258-.078c-.007 0-.011 0-.02-.004a1.514 1.514 0 0 0-.132-.008h-.031c-.02 0-.04 0-.059.004-.011 0-.027.004-.039.004-.02.004-.035.004-.05.007-.012.004-.024.004-.036.008a.294.294 0 0 0-.058.016c-.008.004-.016.004-.024.008-.02.008-.039.011-.058.023h-.004a.904.904 0 0 0-.383.332l-.012.02-.012.023a.982.982 0 0 0-.128.39.893.893 0 0 0 .062.438l3.246 8.723 2.082 5.594v.004c.086.21.211.355.383.433l.016.012c.004.004.007.008.015.012 0 .004.004.004.008.007a.069.069 0 0 1 .02.016h.007a.26.26 0 0 0 .121.04l.012.003c.016.004.031.012.047.016.008 0 .016.004.024.004a.717.717 0 0 0 .46.007c.008-.004.016-.004.024-.007a.458.458 0 0 0 .094-.036.139.139 0 0 0 .035-.015.813.813 0 0 1 .066-.035.657.657 0 0 1 .055-.036c.012-.007.023-.02.035-.027.027-.02.05-.039.078-.062.004-.004.008-.008.012-.016a1.744 1.744 0 0 0 .09-.098.909.909 0 0 0 .066-.101c.02-.04.04-.082.055-.125l.004-.012.011-.016.012-.027 3.528-8.422 3.558 8.453c.027.086.07.164.129.239l.023.03c.02.024.04.048.063.071.012.008.023.02.035.028.02.02.043.039.067.058.011.008.02.016.03.02a.78.78 0 0 0 .083.054l.023.012c.031.016.059.031.094.043a.056.056 0 0 0 .027.008.584.584 0 0 0 .086.031l.114.024h.117a.73.73 0 0 0 .133-.012c.011 0 .02 0 .03-.004a.895.895 0 0 0 .138-.04.59.59 0 0 0 .113-.05c.004 0 .008-.004.012-.004.042-.027.085-.055.12-.082.157-.117.27-.27.348-.457v-.004l2.2-5.922 3.093-8.332a.915.915 0 0 0-.094-.863.326.326 0 0 0-.03-.047" fill="#29B5E8" data-color="1"/>
        <path d="M167.25 14.746a.229.229 0 0 0-.008-.05c0-.013-.004-.024-.008-.036a1.27 1.27 0 0 0-.011-.055l-.012-.031a.173.173 0 0 0-.023-.063c0-.007-.004-.011-.008-.02a.445.445 0 0 0-.04-.073v-.004a.924.924 0 0 0-.171-.215l-.004-.004-.004-.004c-.332-.332-.8-.375-1.168-.117-.012.008-.02.016-.031.02l-.047.035-.07.066s-.004 0-.004.004l-9.153 8.922V8.199c0-.031 0-.063-.004-.094a.94.94 0 0 0-.578-.761c-.004 0-.004-.004-.008-.004a.344.344 0 0 0-.058-.02l-.031-.012-.051-.011a.64.64 0 0 0-.094-.02c-.016-.004-.027-.004-.043-.008-.035-.004-.066-.004-.098-.004a.945.945 0 0 0-.937.934v21.164c0 .512.426.938.937.938.032 0 .067 0 .098-.004.004 0 .008-.004.016-.004.027-.004.054-.004.078-.012.008 0 .015-.004.023-.004.024-.008.047-.012.07-.02.005 0 .008-.003.012-.003a.944.944 0 0 0 .664-.793c.004-.032.004-.063.004-.098v-3.57l3.082-3.078 5.989 7.226a.607.607 0 0 0 .136.16c.012.012.02.02.032.028.015.011.03.023.046.03.02.017.04.024.06.036l.026.016.079.03c.007.005.015.005.02.009l.089.023c.004 0 .012.004.02.004a.67.67 0 0 0 .117.02c.039 0 .078.004.12.004.063 0 .122-.004.176-.012h.004a1 1 0 0 0 .305-.098c.004 0 .004-.004.004-.004.043-.023.086-.05.129-.082l.012-.012c.355-.355.41-.84.152-1.242a1.736 1.736 0 0 0-.074-.105l-6.082-7.387 6.039-5.836a.976.976 0 0 0 .281-.578c0-.004 0-.008.004-.012v-.062c0-.012.004-.024.004-.031v-.016c0-.016-.004-.027-.004-.043 0-.012-.004-.023-.004-.035" fill="#29B5E8" data-color="1"/>
    </g>
</svg>
